<svg xmlns="http://www.w3.org/2000/svg" version="1.1" xmlns:xlink="http://www.w3.org/1999/xlink" width="1500" height="1500" viewBox="0 0 1500 1500"><rect width="1500" height="1500" x="0" y="0" id="background" stroke="transparent" fill="#000000"></rect><svg xml:space="preserve" width="1000" height="1000" data-version="2" data-id="lg_FkgTpQstyQD70acRWF" viewBox="0 0 553 499" x="250" y="250"><rect width="100%" height="100%" fill="transparent"></rect><circle r="10.2" fill="#2c106a" transform="translate(73.52 308.79)scale(2.2988)"></circle><circle r="2" fill="#2c106a" transform="translate(73.52 268.79)scale(2.2988)"></circle><circle r="2" fill="#2c106a" transform="translate(113.52 228.79)scale(2.2988)"></circle><circle r="2" fill="#2c106a" transform="translate(113.52 308.79)scale(2.2988)"></circle><circle r="10.2" fill="#2c106a" transform="translate(113.52 268.79)scale(2.2988)"></circle><circle r="10.2" fill="#2c106a" transform="translate(73.52 228.79)scale(2.2988)"></circle><circle r="2" fill="#2c106a" transform="translate(73.52 188.79)scale(2.2988)"></circle><circle r="2" fill="#2c106a" transform="translate(113.52 148.79)scale(2.2988)"></circle><circle r="10.2" fill="#2c106a" transform="translate(73.52 148.79)scale(2.2988)"></circle><circle r="10.2" fill="#2c106a" transform="translate(113.52 188.79)scale(2.2988)"></circle><circle r="10.2" fill="#2c106a" transform="translate(153.51 308.79)scale(2.2988)"></circle><circle r="2" fill="#2c106a" transform="translate(153.51 268.79)scale(2.2988)"></circle><circle r="2" fill="#2c106a" transform="translate(193.51 228.79)scale(2.2988)"></circle><circle r="2" fill="#2c106a" transform="translate(193.51 308.79)scale(2.2988)"></circle><circle r="10.2" fill="#2c106a" transform="translate(193.51 268.79)scale(2.2988)"></circle><circle r="10.2" fill="#2c106a" transform="translate(153.51 228.79)scale(2.2988)"></circle><circle r="2" fill="#2c106a" transform="translate(153.51 188.79)scale(2.2988)"></circle><circle r="2" fill="#2c106a" transform="translate(193.51 148.79)scale(2.2988)"></circle><circle r="10.2" fill="#2c106a" transform="translate(153.51 148.79)scale(2.2988)"></circle><circle r="10.2" fill="#2c106a" transform="translate(233.51 308.79)scale(2.2988)"></circle><circle r="2" fill="#2c106a" transform="translate(233.51 268.79)scale(2.2988)"></circle><circle r="10.2" fill="#2c106a" transform="translate(233.51 228.79)scale(2.2988)"></circle><circle r="2" fill="#2c106a" transform="translate(233.51 188.79)scale(2.2988)"></circle><circle r="10.2" fill="#2c106a" transform="translate(233.51 148.79)scale(2.2988)"></circle><circle r="10.2" fill="#2c106a" transform="translate(193.51 188.79)scale(2.2988)"></circle><circle r="10.2" fill="#2c106a" transform="translate(113.37 188.39)scale(2.2988)"></circle><circle r="2" fill="#2c106a" transform="translate(113.37 148.39)scale(2.2988)"></circle><circle r="2" fill="#2c106a" transform="translate(153.37 108.39)scale(2.2988)"></circle><circle r="2" fill="#2c106a" transform="translate(153.37 188.39)scale(2.2988)"></circle><circle r="10.2" fill="#2c106a" transform="translate(153.37 148.39)scale(2.2988)"></circle><circle r="10.2" fill="#2c106a" transform="translate(113.37 108.39)scale(2.2988)"></circle><circle r="2" fill="#2c106a" transform="translate(113.37 68.39)scale(2.2988)"></circle><circle r="2" fill="#2c106a" transform="translate(153.37 28.39)scale(2.2988)"></circle><circle r="10.2" fill="#2c106a" transform="translate(113.37 28.39)scale(2.2988)"></circle><circle r="10.2" fill="#2c106a" transform="translate(153.37 68.39)scale(2.2988)"></circle><circle r="10.2" fill="#2c106a" transform="translate(193.37 188.39)scale(2.2988)"></circle><circle r="2" fill="#2c106a" transform="translate(193.37 148.39)scale(2.2988)"></circle><circle r="2" fill="#2c106a" transform="translate(233.37 108.39)scale(2.2988)"></circle><circle r="2" fill="#2c106a" transform="translate(233.37 188.39)scale(2.2988)"></circle><circle r="10.2" fill="#2c106a" transform="translate(233.37 148.39)scale(2.2988)"></circle><circle r="10.2" fill="#2c106a" transform="translate(193.37 108.39)scale(2.2988)"></circle><circle r="2" fill="#2c106a" transform="translate(193.37 68.39)scale(2.2988)"></circle><circle r="2" fill="#2c106a" transform="translate(233.37 28.39)scale(2.2988)"></circle><circle r="10.2" fill="#2c106a" transform="translate(193.37 28.39)scale(2.2988)"></circle><circle r="10.2" fill="#2c106a" transform="translate(273.37 188.39)scale(2.2988)"></circle><circle r="2" fill="#2c106a" transform="translate(273.37 148.39)scale(2.2988)"></circle><circle r="10.2" fill="#2c106a" transform="translate(273.37 108.39)scale(2.2988)"></circle><circle r="2" fill="#2c106a" transform="translate(273.37 68.39)scale(2.2988)"></circle><circle r="10.2" fill="#2c106a" transform="translate(273.37 28.39)scale(2.2988)"></circle><circle r="10.2" fill="#2c106a" transform="translate(233.37 68.39)scale(2.2988)"></circle><circle r="10.2" fill="#2c106a" transform="translate(233.68 308.86)scale(2.2988)"></circle><circle r="2" fill="#2c106a" transform="translate(233.68 268.86)scale(2.2988)"></circle><circle r="2" fill="#2c106a" transform="translate(273.68 228.86)scale(2.2988)"></circle><circle r="2" fill="#2c106a" transform="translate(273.68 308.86)scale(2.2988)"></circle><circle r="10.2" fill="#2c106a" transform="translate(273.68 268.86)scale(2.2988)"></circle><circle r="10.2" fill="#2c106a" transform="translate(233.68 228.86)scale(2.2988)"></circle><circle r="2" fill="#2c106a" transform="translate(233.68 188.86)scale(2.2988)"></circle><circle r="2" fill="#2c106a" transform="translate(273.68 148.86)scale(2.2988)"></circle><circle r="10.2" fill="#2c106a" transform="translate(233.68 148.86)scale(2.2988)"></circle><circle r="10.2" fill="#2c106a" transform="translate(273.68 188.86)scale(2.2988)"></circle><circle r="10.2" fill="#2c106a" transform="translate(313.68 308.86)scale(2.2988)"></circle><circle r="2" fill="#2c106a" transform="translate(313.68 268.86)scale(2.2988)"></circle><circle r="2" fill="#2c106a" transform="translate(353.68 228.86)scale(2.2988)"></circle><circle r="2" fill="#2c106a" transform="translate(353.68 308.86)scale(2.2988)"></circle><circle r="10.2" fill="#2c106a" transform="translate(353.68 268.86)scale(2.2988)"></circle><circle r="10.2" fill="#2c106a" transform="translate(313.68 228.86)scale(2.2988)"></circle><circle r="2" fill="#2c106a" transform="translate(313.68 188.86)scale(2.2988)"></circle><circle r="2" fill="#2c106a" transform="translate(353.68 148.86)scale(2.2988)"></circle><circle r="10.2" fill="#2c106a" transform="translate(313.68 148.86)scale(2.2988)"></circle><circle r="10.2" fill="#2c106a" transform="translate(393.68 308.86)scale(2.2988)"></circle><circle r="2" fill="#2c106a" transform="translate(393.68 268.86)scale(2.2988)"></circle><circle r="10.2" fill="#2c106a" transform="translate(393.68 228.86)scale(2.2988)"></circle><circle r="2" fill="#2c106a" transform="translate(393.68 188.86)scale(2.2988)"></circle><circle r="10.2" fill="#2c106a" transform="translate(393.68 148.86)scale(2.2988)"></circle><circle r="10.2" fill="#2c106a" transform="translate(353.68 188.86)scale(2.2988)"></circle><circle r="10.2" fill="#2c106a" transform="translate(314.57 390.25)scale(2.3115)"></circle><circle r="2" fill="#2c106a" transform="translate(314.57 350.04)scale(2.3115)"></circle><circle r="2" fill="#2c106a" transform="translate(354.79 309.82)scale(2.3115)"></circle><circle r="2" fill="#2c106a" transform="translate(354.79 390.25)scale(2.3115)"></circle><circle r="10.2" fill="#2c106a" transform="translate(354.79 350.04)scale(2.3115)"></circle><circle r="10.2" fill="#2c106a" transform="translate(314.57 309.82)scale(2.3115)"></circle><circle r="2" fill="#2c106a" transform="translate(314.57 269.6)scale(2.3115)"></circle><circle r="2" fill="#2c106a" transform="translate(354.79 229.38)scale(2.3115)"></circle><circle r="10.2" fill="#2c106a" transform="translate(314.57 229.38)scale(2.3115)"></circle><circle r="10.2" fill="#2c106a" transform="translate(354.79 269.6)scale(2.3115)"></circle><circle r="10.2" fill="#2c106a" transform="translate(395 390.25)scale(2.3115)"></circle><circle r="2" fill="#2c106a" transform="translate(395 350.04)scale(2.3115)"></circle><circle r="2" fill="#2c106a" transform="translate(435.23 309.82)scale(2.3115)"></circle><circle r="2" fill="#2c106a" transform="translate(435.23 390.25)scale(2.3115)"></circle><circle r="10.2" fill="#2c106a" transform="translate(435.23 350.04)scale(2.3115)"></circle><circle r="10.2" fill="#2c106a" transform="translate(395 309.82)scale(2.3115)"></circle><circle r="2" fill="#2c106a" transform="translate(395 269.6)scale(2.3115)"></circle><circle r="2" fill="#2c106a" transform="translate(435.23 229.38)scale(2.3115)"></circle><circle r="10.2" fill="#2c106a" transform="translate(395 229.38)scale(2.3115)"></circle><circle r="10.2" fill="#2c106a" transform="translate(475.45 390.25)scale(2.3115)"></circle><circle r="2" fill="#2c106a" transform="translate(475.45 350.04)scale(2.3115)"></circle><circle r="10.2" fill="#2c106a" transform="translate(475.45 309.82)scale(2.3115)"></circle><circle r="2" fill="#2c106a" transform="translate(475.45 269.6)scale(2.3115)"></circle><circle r="10.2" fill="#2c106a" transform="translate(475.45 229.38)scale(2.3115)"></circle><circle r="10.2" fill="#2c106a" transform="translate(435.23 269.6)scale(2.3115)"></circle><g transform="translate(276.5 203.65)"><filter id="a" width="140%" height="140%" x="-20%" y="-20%"><feGaussianBlur in="SourceAlpha"></feGaussianBlur><feOffset result="oBlur"></feOffset><feFlood flood-color="#F75CFF" flood-opacity="1"></feFlood><feComposite in2="oBlur" operator="in"></feComposite><feMerge><feMergeNode></feMergeNode><feMergeNode in="SourceGraphic"></feMergeNode></feMerge></filter><g filter="url(#a)"><path fill="#fff" d="M-153.365 50.485h-31.32v-35.47q0-6.57.5-13.51.5-6.93 1.07-11.65.58-4.72.72-6.01h-.57l-18.16 66.64h-24.74l-18.31-66.5h-.57q.14 1.29.79 5.94.64 4.65 1.21 11.58.57 6.94.57 13.51v35.47h-29.02v-98.39h44.61l14.87 56.78h.58l14.72-56.78h43.05z"></path><rect width="117.83" height="98.39" x="-58.91" y="-49.2" fill="none" rx="0" ry="0" transform="translate(-211.78 1.79)"></rect><path fill="#fff" d="M-97.165-26.735q19.87 0 31.24 10.08 11.37 10.08 11.37 29.39 0 19.3-11.37 29.38-11.37 10.08-31.24 10.08-19.88 0-31.18-10.01-11.29-10.01-11.29-29.45 0-19.45 11.29-29.46 11.3-10.01 31.18-10.01m0 19.3q-14.02 0-14.02 16.16v8.15q0 16.02 14.02 16.02 14.15 0 14.15-16.02v-8.15q0-16.16-14.15-16.16"></path><rect width="85.08" height="78.93" x="-42.54" y="-39.47" fill="none" rx="0" ry="0" transform="translate(-96.6 13.23)"></rect><path fill="#fff" d="M-4.935-26.735q15.16 0 25.67 5.93 10.51 5.94 10.51 18.38H4.795q0-4.15-3.72-5.86-2.58-1.43-6.44-1.43-10.29 0-10.29 4.86 0 2.71 3.57 3.86 3.58 1.14 11.73 2.43 10.01 1.43 16.73 3.36 6.72 1.93 11.72 6.86 5.01 4.94 5.01 13.8 0 14.45-10.8 20.6-10.79 6.14-28.24 6.14-10.01 0-18.88-2.78-8.86-2.79-14.44-8.66-5.58-5.86-5.58-14.87h26.46v.57q.14 4.87 4.07 6.8 3.94 1.93 8.37 1.93 11.87 0 11.87-5.58 0-2.86-3.72-4.15-3.72-1.28-12.15-2.71-10.16-1.72-16.66-3.72-6.51-2-11.37-6.79-4.86-4.79-4.86-13.37 0-13.88 10.51-19.74 10.51-5.86 27.38-5.86"></path><rect width="77.94" height="78.93" x="-38.97" y="-39.47" fill="none" rx="0" ry="0" transform="translate(-5.37 13.23)"></rect><path fill="#fff" d="M83.865-26.735q17.31 0 28.18 5.79 10.86 5.79 10.86 18.8v29.46q0 2.43 1.15 4.01 1.14 1.57 3.43 1.57h5.15v16.44q-.43.29-2.22.93-1.79.65-5.08 1.29-3.28.64-7.57.64-8.3 0-13.66-2.5-5.36-2.5-7.37-6.93-5.43 4.29-12.15 6.86-6.72 2.57-15.73 2.57-26.6 0-26.6-21.16 0-11.01 5.94-16.8 5.93-5.79 17.08-7.94 11.16-2.14 29.18-2.14V.435q0-4.43-3.08-6.72-3.07-2.29-7.93-2.29-4.44 0-7.66 1.57-3.21 1.58-3.21 5.01v.57h-28.03q-.14-.72-.14-2 0-10.73 10.22-17.02 10.23-6.29 29.24-6.29m10.59 44.33q-12.16 0-17.95 2.64-5.79 2.65-5.79 7.08 0 7.15 9.72 7.15 5.58 0 9.8-3 4.22-3 4.22-7.44z"></path><rect width="90.38" height="78.93" x="-45.19" y="-39.47" fill="none" rx="0" ry="0" transform="translate(87.94 13.23)"></rect><path fill="#fff" d="M171.385-33.885h-28.46v-19.31h28.46zm0 84.37h-28.46v-75.51h28.46z"></path><rect width="28.46" height="103.68" x="-14.23" y="-51.84" fill="none" rx="0" ry="0" transform="translate(157.66 -.85)"></rect><path fill="#fff" d="M228.585-26.735q18.59 0 30.1 7.93 11.51 7.94 11.51 24.24h-27.6q0-12.87-14.01-12.87t-14.01 16.16v8.15q0 16.02 14.58 16.02 14.59 0 14.59-13.16h26.45q0 16.45-11.51 24.46-11.51 8-30.1 8-19.88 0-31.17-10.01-11.3-10.01-11.3-29.45 0-19.45 11.3-29.46 11.29-10.01 31.17-10.01"></path><rect width="84.08" height="78.93" x="-42.04" y="-39.47" fill="none" rx="0" ry="0" transform="translate(228.66 13.23)"></rect></g></g><path fill="#fff" d="M281.145 485.838h-2.49v-21.41h2.49z"></path><rect width="2.49" height="21.41" x="-1.25" y="-10.71" fill="none" rx="0" ry="0" transform="translate(280.4 475.63)"></rect><path fill="#fff" d="M293.095 486.138q-2.17 0-3.82-.9-1.66-.89-2.58-2.72-.92-1.83-.92-4.62 0-2.91.97-4.76.98-1.86 2.69-2.75 1.71-.89 3.9-.89 1.2 0 2.32.24 1.12.24 1.84.61l-.74 2.03q-.73-.29-1.69-.53-.96-.23-1.79-.23-1.67 0-2.78.72-1.1.72-1.65 2.11-.55 1.39-.55 3.42 0 1.95.53 3.33.54 1.38 1.6 2.1 1.06.73 2.66.73 1.27 0 2.3-.27 1.02-.28 1.86-.64v2.17q-.81.41-1.8.63-.99.22-2.35.22"></path><rect width="11.72" height="16.64" x="-5.86" y="-8.32" fill="none" rx="0" ry="0" transform="translate(292.13 478.32)"></rect><path fill="#fff" d="M314.875 477.788q0 1.97-.51 3.53-.51 1.55-1.48 2.62-.96 1.07-2.33 1.63-1.37.57-3.1.57-1.61 0-2.95-.57-1.34-.56-2.32-1.63-.97-1.07-1.51-2.62-.53-1.56-.53-3.53 0-2.64.89-4.49.9-1.86 2.56-2.83 1.66-.97 3.96-.97 2.2 0 3.85.98 1.64.98 2.56 2.83.91 1.85.91 4.48m-12.21 0q0 1.93.51 3.35.51 1.42 1.58 2.2 1.07.77 2.76.77 1.67 0 2.74-.77 1.08-.78 1.59-2.2.52-1.42.52-3.35 0-1.92-.52-3.32-.51-1.4-1.58-2.16-1.07-.76-2.77-.76-2.5 0-3.67 1.65-1.16 1.66-1.16 4.59"></path><rect width="14.73" height="16.64" x="-7.37" y="-8.32" fill="none" rx="0" ry="0" transform="translate(308.01 478.32)"></rect><path fill="#fff" d="M326.685 469.498q2.86 0 4.32 1.39 1.47 1.4 1.47 4.49v10.46h-2.4v-10.29q0-2.01-.92-3.01-.92-.99-2.81-.99-2.66 0-3.75 1.51-1.08 1.5-1.08 4.38v8.4h-2.43v-16.05h1.96l.37 2.31h.13q.51-.85 1.3-1.43.79-.57 1.78-.87.98-.3 2.06-.3"></path><rect width="13.39" height="16.34" x="-6.7" y="-8.17" fill="none" rx="0" ry="0" transform="translate(326.28 478.17)"></rect><path fill="#fff" d="M337.485 469.788h2.43v16.05h-2.43zm1.24-6.01q.6 0 1.04.39.43.39.43 1.21 0 .81-.43 1.2-.44.4-1.04.4-.63 0-1.04-.4-.42-.39-.42-1.2 0-.82.42-1.21.41-.39 1.04-.39"></path><rect width="2.93" height="22.06" x="-1.47" y="-11.03" fill="none" rx="0" ry="0" transform="translate(339.23 475.3)"></rect><path fill="#fff" d="M351.485 486.138q-2.17 0-3.82-.9-1.66-.89-2.58-2.72-.92-1.83-.92-4.62 0-2.91.97-4.76.98-1.86 2.69-2.75 1.71-.89 3.9-.89 1.2 0 2.32.24 1.12.24 1.84.61l-.74 2.03q-.73-.29-1.69-.53-.96-.23-1.79-.23-1.67 0-2.78.72-1.1.72-1.65 2.11-.55 1.39-.55 3.42 0 1.95.53 3.33.54 1.38 1.6 2.1 1.06.73 2.66.73 1.27 0 2.3-.27 1.02-.28 1.86-.64v2.17q-.81.41-1.8.63-.99.22-2.35.22"></path><rect width="11.72" height="16.64" x="-5.86" y="-8.32" fill="none" rx="0" ry="0" transform="translate(350.52 478.32)"></rect><path fill="#fff" d="M374.765 469.498q3 0 4.79 2.06 1.78 2.07 1.78 6.21 0 2.74-.82 4.6-.82 1.86-2.3 2.81-1.49.96-3.51.96-1.28 0-2.24-.34-.97-.34-1.66-.91-.69-.57-1.14-1.24h-.18q.05.57.11 1.37.07.81.07 1.41v6.59h-2.45v-23.23h2.01l.32 2.37h.12q.47-.73 1.14-1.34.68-.61 1.65-.97.97-.35 2.31-.35m-.43 2.05q-1.67 0-2.69.64-1.01.65-1.48 1.93-.47 1.28-.5 3.21v.47q0 2.04.45 3.44.44 1.41 1.48 2.14 1.03.73 2.77.73 1.5 0 2.49-.8 1-.81 1.49-2.25t.49-3.32q0-2.84-1.11-4.52-1.1-1.67-3.39-1.67"></path><rect width="14.12" height="23.52" x="-7.06" y="-11.76" fill="none" rx="0" ry="0" transform="translate(374.77 481.76)"></rect><path fill="#fff" d="M385.575 463.048h2.43v6.81q0 .59-.03 1.18t-.1 1.09h.16q.5-.85 1.27-1.43.77-.57 1.75-.87.98-.3 2.08-.3 1.93 0 3.23.61 1.29.62 1.94 1.9.66 1.29.66 3.34v10.46h-2.41v-10.29q0-2.01-.91-3.01-.92-.99-2.81-.99-1.78 0-2.85.68-1.06.68-1.52 2-.46 1.32-.46 3.22v8.39h-2.43z"></path><rect width="13.39" height="22.79" x="-6.7" y="-11.39" fill="none" rx="0" ry="0" transform="translate(392.77 474.94)"></rect><path fill="#fff" d="M417.815 477.788q0 1.97-.51 3.53-.52 1.55-1.48 2.62-.97 1.07-2.34 1.63-1.37.57-3.1.57-1.61 0-2.95-.57-1.34-.56-2.31-1.63-.98-1.07-1.51-2.62-.54-1.56-.54-3.53 0-2.64.9-4.49.89-1.86 2.55-2.83 1.67-.97 3.97-.97 2.19 0 3.84.98t2.56 2.83q.92 1.85.92 4.48m-12.22 0q0 1.93.52 3.35.51 1.42 1.58 2.2 1.07.77 2.75.77 1.67 0 2.75-.77 1.07-.78 1.59-2.2.51-1.42.51-3.35 0-1.92-.51-3.32-.52-1.4-1.58-2.16-1.07-.76-2.77-.76-2.51 0-3.67 1.65-1.17 1.66-1.17 4.59"></path><rect width="14.74" height="16.64" x="-7.37" y="-8.32" fill="none" rx="0" ry="0" transform="translate(410.94 478.32)"></rect><path fill="#fff" d="M427.205 484.138q.6 0 1.23-.1t1.02-.25v1.89q-.42.19-1.17.32-.76.14-1.48.14-1.27 0-2.31-.45t-1.66-1.52q-.63-1.07-.63-2.96v-9.52h-2.28v-1.18l2.3-.96.97-3.48h1.46v3.72h4.7v1.9h-4.7v9.45q0 1.51.7 2.26.69.74 1.85.74"></path><rect width="9.53" height="20.07" x="-4.76" y="-10.04" fill="none" rx="0" ry="0" transform="translate(425.19 476.6)"></rect><path fill="#fff" d="M446.555 477.788q0 1.97-.51 3.53-.52 1.55-1.48 2.62-.97 1.07-2.34 1.63-1.37.57-3.1.57-1.61 0-2.95-.57-1.34-.56-2.31-1.63-.98-1.07-1.51-2.62-.54-1.56-.54-3.53 0-2.64.9-4.49.89-1.86 2.55-2.83 1.67-.97 3.97-.97 2.19 0 3.84.98t2.56 2.83q.92 1.85.92 4.48m-12.22 0q0 1.93.52 3.35.51 1.42 1.58 2.2 1.07.77 2.75.77 1.67 0 2.75-.77 1.07-.78 1.59-2.2.51-1.42.51-3.35 0-1.92-.51-3.32-.52-1.4-1.58-2.16-1.07-.76-2.77-.76-2.51 0-3.67 1.65-1.17 1.66-1.17 4.59"></path><rect width="14.74" height="16.64" x="-7.37" y="-8.32" fill="none" rx="0" ry="0" transform="translate(439.69 478.32)"></rect><path fill="#fff" d="M455.245 493.048q-3.17 0-4.88-1.18-1.72-1.18-1.72-3.3 0-1.51.96-2.58t2.66-1.42q-.63-.29-1.07-.88-.45-.59-.45-1.35 0-.88.49-1.54.49-.67 1.5-1.28-1.26-.52-2.04-1.74-.79-1.22-.79-2.85 0-1.73.72-2.95.72-1.22 2.08-1.87 1.36-.64 3.3-.64.42 0 .85.03.44.04.83.11.4.06.69.15h5.51v1.57l-2.96.36q.44.57.73 1.38.3.81.3 1.79 0 2.4-1.63 3.81-1.63 1.42-4.47 1.42-.67 0-1.38-.12-.71.39-1.09.88-.37.48-.37 1.11 0 .47.29.75.28.28.82.4.54.13 1.31.13h2.82q2.63 0 4.02 1.09 1.4 1.1 1.4 3.21 0 2.67-2.16 4.09-2.17 1.42-6.27 1.42m.07-1.9q1.99 0 3.3-.41 1.31-.4 1.97-1.15.65-.76.65-1.8 0-.97-.44-1.46t-1.29-.66q-.85-.16-2.08-.16h-2.78q-1.09 0-1.89.33-.81.34-1.24 1-.43.66-.43 1.64 0 1.3 1.09 1.98 1.1.69 3.14.69m.63-12.84q1.74 0 2.62-.87.88-.88.88-2.57 0-1.8-.89-2.7-.9-.9-2.64-.9-1.67 0-2.57.93-.9.93-.9 2.72 0 1.64.91 2.52.9.87 2.59.87"></path><rect width="15.24" height="23.58" x="-7.62" y="-11.79" fill="none" rx="0" ry="0" transform="translate(456.76 481.76)"></rect><path fill="#fff" d="M474.345 469.498q.48 0 1.01.05t.94.14l-.31 2.25q-.4-.1-.88-.16t-.91-.06q-.97 0-1.82.39-.86.39-1.5 1.11-.65.73-1.01 1.75-.37 1.01-.37 2.26v8.61h-2.45v-16.05h2.02l.27 2.96h.1q.5-.9 1.2-1.64.7-.74 1.63-1.17.94-.44 2.08-.44"></path><rect width="9.25" height="16.34" x="-4.63" y="-8.17" fill="none" rx="0" ry="0" transform="translate(472.17 478.17)"></rect><path fill="#fff" d="M485.315 469.528q2.87 0 4.26 1.28 1.39 1.29 1.39 4.12v10.91h-1.77l-.47-2.37h-.11q-.68.88-1.41 1.47-.73.6-1.69.9-.96.3-2.35.3-1.47 0-2.6-.52-1.14-.51-1.79-1.55-.65-1.04-.65-2.64 0-2.4 1.9-3.69 1.91-1.29 5.8-1.4l2.77-.12v-.98q0-2.08-.89-2.92-.9-.83-2.52-.83-1.26 0-2.4.36-1.15.37-2.17.87l-.75-1.85q1.08-.55 2.49-.95 1.41-.39 2.96-.39m3.25 9.88v-1.48l-2.45.11q-3 .11-4.23.98-1.23.86-1.23 2.44 0 1.38.84 2.04.83.66 2.21.66 2.14 0 3.5-1.19 1.36-1.18 1.36-3.56"></path><rect width="12.84" height="16.61" x="-6.42" y="-8.3" fill="none" rx="0" ry="0" transform="translate(485.05 478.33)"></rect><path fill="#fff" d="M503.525 469.498q3 0 4.79 2.06 1.78 2.07 1.78 6.21 0 2.74-.82 4.6-.82 1.86-2.3 2.81-1.49.96-3.51.96-1.28 0-2.24-.34-.97-.34-1.66-.91-.69-.57-1.14-1.24h-.18q.05.57.11 1.37.07.81.07 1.41v6.59h-2.45v-23.23h2.01l.32 2.37h.12q.47-.73 1.14-1.34.68-.61 1.65-.97.97-.35 2.31-.35m-.43 2.05q-1.67 0-2.69.64-1.01.65-1.48 1.93-.47 1.28-.5 3.21v.47q0 2.04.45 3.44.44 1.41 1.48 2.14 1.03.73 2.77.73 1.5 0 2.49-.8 1-.81 1.49-2.25t.49-3.32q0-2.84-1.11-4.52-1.1-1.67-3.39-1.67"></path><rect width="14.12" height="23.52" x="-7.06" y="-11.76" fill="none" rx="0" ry="0" transform="translate(503.54 481.76)"></rect><path fill="#fff" d="M514.335 463.048h2.43v6.81q0 .59-.03 1.18t-.1 1.09h.16q.5-.85 1.27-1.43.76-.57 1.75-.87.98-.3 2.08-.3 1.93 0 3.23.61 1.29.62 1.94 1.9.66 1.29.66 3.34v10.46h-2.41v-10.29q0-2.01-.91-3.01-.92-.99-2.81-.99-1.78 0-2.85.68-1.06.68-1.52 2-.46 1.32-.46 3.22v8.39h-2.43z"></path><rect width="13.39" height="22.79" x="-6.7" y="-11.39" fill="none" rx="0" ry="0" transform="translate(521.53 474.94)"></rect><path fill="#fff" d="m536.625 485.868-6.43-16.08h2.61l3.54 9.32q.31.82.58 1.57.26.75.46 1.44.21.69.33 1.34h.1q.2-.74.59-1.93.38-1.19.82-2.44l3.35-9.3h2.62l-6.99 18.41q-.55 1.48-1.29 2.58t-1.8 1.69q-1.05.6-2.54.6-.69 0-1.22-.09-.53-.08-.91-.18v-1.95q.32.08.78.13.47.06.96.06.91 0 1.58-.34t1.15-1q.48-.66.83-1.57z"></path><rect width="15" height="23.28" x="-7.5" y="-11.64" fill="none" rx="0" ry="0" transform="translate(538.2 481.93)"></rect></svg></svg>